HIERARCHY
ROOT Hips
{
	OFFSET 0.00000 0.00000 0.00000
	CHANNELS 6 Xposition Yposition Zposition Yrotation Zrotation Xrotation 
	JOINT Lumbar
	{
		OFFSET 0 0 0
		CHANNELS 3 Zrotation Xrotation Yrotation
		JOINT Neck
		{
			OFFSET 0.00 0.2701 0.00
			CHANNELS 3 Zrotation Xrotation Yrotation
			End Site
			{
				OFFSET 0.00 0.1379 0.00
			}
		}
		JOINT RightShoulder
		{
			OFFSET 0.0119 0.2289 0.1181
			CHANNELS 3 Zrotation Xrotation Yrotation
			JOINT RightElbow
			{
				OFFSET 0.00 -0.1475 0.00
				CHANNELS 2 Zrotation Yrotation
				JOINT RightWrist
				{
					OFFSET 0.00 -0.1605 0.00
					CHANNELS 2 Zrotation Xrotation
					End Site
					{
						OFFSET 0.0040 -0.1068 0.0006
					}
				}
			}
		}
		JOINT LeftShoulder
		{
			OFFSET 0.0119 0.2289 -0.1181
			CHANNELS 3 Zrotation Xrotation Yrotation
			JOINT LeftElbow
			{
				OFFSET 0.00 -0.1475 0.00
				CHANNELS 2 Zrotation Yrotation
				JOINT LeftWrist
				{
					OFFSET 0.00 -0.1605 0.00
					CHANNELS 2 Zrotation Xrotation
					End Site
					{
						OFFSET 0.0040 -0.1068 -0.0006
					}
				}
			}
		}
	}
	JOINT RightHip
	{
		OFFSET 0.0316 -0.0424 0.0458
		CHANNELS 3 Zrotation Xrotation Yrotation
		JOINT RightKnee
		{
			OFFSET 0.00 -0.2438 0.00
			CHANNELS 1 Zrotation
			JOINT RightAnkle
			{
				OFFSET 0.00 -0.2449 0.00
				CHANNELS 3 Zrotation Xrotation Yrotation
				End Site
				{
					OFFSET 0.1237 -0.0542 0.0051
				}
			}
		}
	}
	JOINT LeftHip
	{
		OFFSET 0.0316 -0.0424 -0.0458
		CHANNELS 3 Zrotation Xrotation Yrotation
		JOINT LeftKnee
		{
			OFFSET 0.00 -0.2438 0.00
			CHANNELS 1 Zrotation
			JOINT LeftAnkle
			{
				OFFSET 0.00 -0.2449 0.00
				CHANNELS 3 Zrotation Xrotation Yrotation
				End Site
				{
					OFFSET 0.1237 -0.0542 -0.0051
				}
			}
		}
	}
}
MOTION
Frames: 19
Frame Time: 0.02
0.00037 -2e-05 0.00013 14.57604 -34.58423 -2.48973 56.02936 2.32375 2.82264 -3.60407 -6.46963 -0.61523 137.90149 -69.00783 -78.13672 12.45391 73.50157 2.97035 -9.939 144.42544 73.79955 87.47922 10.99385 -70.59216 4.125 11.36286 51.51018 -2.71006 -2.01724 -19.19713 -8.442 -4.15735 -4.36903 54.76562 5.56652 -2.0671 -24.07926 -9.42453 4.24318 4.45664
0.00084 7e-05 9e-05 14.59371 -34.59289 -2.51775 56.13362 2.30183 2.8362 -3.72283 -6.50941 -0.61989 138.88969 -69.10097 -77.04096 12.51135 73.71083 2.98698 -9.93734 146.03681 73.37255 85.93128 10.91117 -72.52469 3.75935 11.4115 51.44552 -2.79084 -2.67452 -19.1871 -8.38605 -4.11784 -4.34467 54.7221 5.7142 -1.47724 -24.0736 -9.35824 4.20254 4.43242
0.00131 0.00016 4e-05 14.61146 -34.60141 -2.54571 56.23759 2.2799 2.84965 -3.84147 -6.54895 -0.62455 139.8759 -69.19401 -75.94741 12.56859 73.9195 3.0036 -9.93557 147.64452 72.94651 84.38706 10.82869 -74.44808 3.39553 11.45963 51.38086 -2.87142 -3.33008 -19.1771 -8.33025 -4.07843 -4.32038 54.67855 5.86153 -0.88866 -24.06796 -9.2921 4.16198 4.40825
0.00178 0.00025 0 14.62909 -34.61002 -2.57365 56.34154 2.25804 2.86315 -3.95991 -6.58861 -0.62921 140.86126 -69.2869 -74.85481 12.62585 74.1281 3.02019 -9.93389 149.25117 72.52076 82.84373 10.74625 -76.37409 3.03114 11.50805 51.31637 -2.95195 -3.98536 -19.16711 -8.27447 -4.03904 -4.29609 54.63513 6.00876 -0.30054 -24.06232 -9.226 4.12145 4.3841
0.00225 0.00034 -4e-05 14.6466 -34.6188 -2.60165 56.44578 2.23622 2.87679 -4.07838 -6.62853 -0.63387 141.84814 -69.37981 -73.7605 12.68333 74.33734 3.03678 -9.93239 150.8609 72.09423 81.29707 10.66366 -78.3106 2.66462 11.55714 51.25196 -3.03268 -4.64229 -19.15709 -8.21856 -3.99956 -4.27174 54.59181 6.15631 0.28868 -24.05666 -9.15978 4.08084 4.35991
0.00272 0.00042 -8e-05 14.66484 -34.62677 -2.62951 56.54916 2.21407 2.88985 -4.19737 -6.66725 -0.63852 142.83284 -69.47311 -72.66864 12.74004 74.54484 3.05346 -9.93005 152.46419 71.66923 79.75808 10.5814 -80.20642 2.30643 11.60324 51.18678 -3.11294 -5.29498 -19.14713 -8.16298 -3.96031 -4.24757 54.54779 6.30317 0.87588 -24.05106 -9.09383 4.04039 4.33578
0.00319 0.00051 -0.00012 14.68159 -34.63636 -2.65764 56.65415 2.1926 2.90403 -4.31518 -6.7084 -0.64319 143.82098 -69.56552 -71.57293 12.79824 74.75541 3.06995 -9.92937 154.07887 71.24158 78.20543 10.49856 -82.18141 1.93208 11.65525 51.1232 -3.19402 -5.95531 -19.13705 -8.10681 -3.92064 -4.22307 54.50519 6.45124 1.46644 -24.04535 -9.02739 3.99968 4.31157
0.00366 0.0006 -0.00017 14.69969 -34.64449 -2.6855 56.75768 2.1705 2.91723 -4.43408 -6.74721 -0.64785 144.80572 -69.6588 -70.48099 12.85508 74.96353 3.08657 -9.92721 155.6827 70.81646 76.66524 10.41625 -84.08454 1.57226 11.70191 51.05821 -3.27441 -6.60889 -19.1271 -8.05117 -3.88134 -4.19886 54.46134 6.59821 2.05401 -24.03974 -8.9614 3.95919 4.28742
0.00412 0.00069 -0.00021 14.71959 -34.65069 -2.71311 56.85939 2.14765 2.92903 -4.55441 -6.78354 -0.65248 145.78782 -69.75303 -69.39213 12.91022 75.16724 3.10357 -9.92301 157.27552 70.39385 75.13996 10.33458 -85.89549 1.23164 11.74159 50.99119 -3.35376 -7.25336 -19.11725 -7.99618 -3.84253 -4.17504 54.41572 6.74387 2.63783 -24.03424 -8.89594 3.91903 4.26336
0.00461 0.00078 -0.00025 14.72957 -34.66753 -2.74239 56.97147 2.12915 2.94825 -4.66679 -6.83529 -0.65723 146.78972 -69.84142 -68.2809 12.97501 75.39207 3.11904 -9.92985 158.93852 69.95503 73.52786 10.24918 -88.22375 0.78486 11.82012 50.9349 -3.43849 -7.9477 -19.10666 -7.93749 -3.80102 -4.14906 54.37954 6.89716 3.24298 -24.02808 -8.82739 3.87714 4.23882
0.00506 0.00086 -0.0003 14.7602 -34.66223 -2.76799 57.06171 2.10145 2.95223 -4.79574 -6.85381 -0.66174 147.7467 -69.94234 -67.22004 13.01954 75.57505 3.13732 -9.91387 160.44886 69.5516 72.09984 10.17171 -89.46915 0.55929 11.81756 50.85659 -3.51223 -8.53835 -19.09772 -7.88658 -3.76514 -4.12759 54.32393 7.03427 3.80317 -24.02333 -8.76536 3.83881 4.21529
0.00543 0.00091 -0.00037 14.85037 -34.59299 -2.78461 57.09109 2.04838 2.91066 -4.97236 -6.7859 -0.66557 148.60457 -70.07633 -66.27317 13.00694 75.61895 3.1669 -9.83046 161.5744 69.23635 71.17677 10.11536 -87.64292 0.97009 11.58255 50.71217 -3.55238 -8.82862 -19.09257 -7.85729 -3.74527 -4.11924 54.2103 7.12738 4.23869 -24.02235 -8.7215 3.811 4.1945
0.00576 0.00093 -0.00045 14.96074 -34.50205 -2.79731 57.09864 1.9861 2.85448 -5.16519 -6.68376 -0.66916 149.41214 -70.22309 -65.38219 12.97423 75.6247 3.19875 -9.72488 162.54009 68.9584 70.44062 10.06698 -84.74813 1.59793 11.26774 50.54667 -3.58203 -9.01704 -19.08921 -7.83578 -3.73098 -4.11531 54.07799 7.20415 4.6292 -24.02282 -8.68415 3.78664 4.17472
0.00611 0.00097 -0.00053 15.06001 -34.42322 -2.81108 57.1169 1.92809 2.8074 -5.34917 -6.59418 -0.67287 150.22791 -70.36494 -64.48031 12.95179 75.66453 3.22708 -9.63277 163.557 68.66903 69.6164 10.01553 -82.4074 2.10688 10.9962 50.39456 -3.61887 -9.26331 -19.08553 -7.81045 -3.7137 -4.10883 53.95735 7.2882 5.04134 -24.02271 -8.6436 3.76018 4.15447
0.00649 0.00101 -0.00062 15.16747 -34.33511 -2.82788 57.13213 1.86964 2.7499 -5.53952 -6.51712 -0.67653 151.10848 -70.50331 -63.51379 12.92473 75.63617 3.26548 -9.52686 164.66508 68.35584 68.79726 9.96225 -79.77453 2.70037 10.6958 50.22639 -3.64589 -9.46338 -19.07982 -7.78619 -3.69818 -4.10455 53.82342 7.37297 5.44895 -24.02227 -8.60397 3.7359 4.13425
0.00678 0.00103 -0.00069 15.26259 -34.26085 -2.8374 57.14805 1.81001 2.71065 -5.72036 -6.40593 -0.68023 151.83836 -70.65163 -62.6996 12.90226 75.73756 3.28399 -9.44372 165.54409 68.10178 68.0225 9.91405 -77.49814 3.17096 10.43553 50.08659 -3.69035 -9.732 -19.07871 -7.76174 -3.6805 -4.09687 53.71253 7.45221 5.85468 -24.02287 -8.56411 3.708 4.11423
0.00683 0.00102 -0.00074 15.31933 -34.23306 -2.82796 57.17523 1.74854 2.72544 -5.8715 -6.20855 -0.68414 152.19517 -70.82702 -62.25594 12.89945 76.23483 3.24263 -9.43493 165.83911 67.99635 67.23296 9.88322 -76.46139 3.23291 10.31474 50.03139 -3.79025 -10.24588 -19.09015 -7.73321 -3.65402 -4.07741 53.67197 7.52159 6.27164 -24.0259 -8.52094 3.66844 4.09422
0.00677 0.001 -0.00077 15.36283 -34.21944 -2.81126 57.2031 1.68636 2.75907 -6.01229 -5.97815 -0.68809 152.39509 -71.01153 -61.97151 12.90133 76.85894 3.18213 -9.44852 165.90615 67.95035 66.49886 9.85623 -75.822 3.16636 10.2353 50.00535 -3.90723 -10.8267 -19.1061 -7.70451 -3.62545 -4.05462 53.65493 7.5857 6.68717 -24.02996 -8.47753 3.62528 4.07443
0.00676 0.00098 -0.00082 15.41198 -34.19738 -2.79776 57.22805 1.62503 2.78408 -6.15765 -5.76299 -0.692 152.64826 -71.19002 -61.63673 12.89998 77.4062 3.13313 -9.44818 166.07302 67.88048 65.7991 9.82408 -75.00486 3.16946 10.13105 49.96515 -4.01325 -11.35634 -19.11975 -7.67696 -3.59881 -4.03424 53.62562 7.65135 7.09992 -24.03359 -8.43494 3.5843 4.0547
